IKResults
version=1
nRows=26
nColumns=24
inDegrees=yes

Units are S.I. units (second, meters, Newtons, ...)
If the header above contains a line with 'inDegrees', this indicates whether rotational values are in degrees (yes) or radians (no).

endheader
time	pelvis_tilt	pelvis_list	pelvis_rotation	pelvis_tx	pelvis_ty	pelvis_tz	hip_flexion_r	hip_adduction_r	hip_rotation_r	knee_angle_r	ankle_angle_r	subtalar_angle_r	mtp_angle_r	hip_flexion_l	hip_adduction_l	hip_rotation_l	knee_angle_l	ankle_angle_l	subtalar_angle_l	mtp_angle_l	lumbar_extension	lumbar_bending	lumbar_rotation
      6.90000000	     10.66639745	      2.25185947	   -181.35141298	      0.30172513	      0.60725773	     -1.22823201	     65.70236483	    -25.06581432	    -15.42509760	    -94.75712850	     35.69963132	      9.55210613	      0.00000000	     68.46731207	    -32.96726073	    -11.48728732	    -94.43008057	     33.99101667	     12.46994941	      0.00000000	     -7.66141315	      1.49196547	      5.29554720
      6.90500000	     10.62934499	      2.21375156	   -181.34329288	      0.30219716	      0.60303542	     -1.22808748	     66.26546184	    -25.26242456	    -15.18608485	    -95.60428432	     35.98681898	      9.52590956	      0.00000000	     69.19135391	    -33.07891592	    -10.89657406	    -95.41457306	     34.16511995	     13.02201753	      0.00000000	     -7.80662102	      1.51673128	      5.15721384
      6.91000000	     10.63038266	      2.23322119	   -181.31978046	      0.30273725	      0.59874735	     -1.22801318	     66.82949874	    -25.42196903	    -15.01034623	    -96.42247751	     36.28551981	      9.49420615	      0.00000000	     69.72897712	    -33.15459816	    -10.80097631	    -96.10116541	     34.59265926	     12.60909119	      0.00000000	     -7.93810019	      1.54836845	      5.10811297
      6.91500000	     10.55608226	      2.26974246	   -181.32711214	      0.30315411	      0.59455205	     -1.22805145	     67.30354750	    -25.55037763	    -14.81863230	    -97.25224322	     36.61778053	      9.63947475	      0.00000000	     70.29227271	    -33.37030197	    -10.56827314	    -97.27179648	     35.24230338	     12.79722142	      0.00000000	     -8.10981925	      1.53807591	      5.28209943
      6.92000000	     10.52162098	      2.30910774	   -181.31917988	      0.30359027	      0.59044926	     -1.22798389	     67.81763804	    -25.69661680	    -14.65643930	    -98.07260557	     36.90059000	      9.63227888	      0.00000000	     70.91065296	    -33.49799482	    -10.19514924	    -98.07745685	     35.55289215	     12.85680817	      0.00000000	     -8.27524920	      1.65098909	      5.13855885
      6.92500000	     10.50276024	      2.32650117	   -181.31891205	      0.30413155	      0.58622740	     -1.22773686	     68.38906932	    -25.87783319	    -14.46869080	    -98.90110126	     37.12217088	      9.62060466	      0.00000000	     71.59545700	    -33.57858705	     -9.76735249	    -98.76505687	     35.62497928	     12.80544265	      0.00000000	     -8.40025260	      1.62518130	      5.34326445
      6.93000000	     10.43881438	      2.33483899	   -181.30470800	      0.30457011	      0.58210033	     -1.22764434	     68.88619605	    -26.05974327	    -14.29516012	    -99.71932447	     37.40893183	      9.54711100	      0.00000000	     72.15946741	    -33.68710285	     -9.44180468	    -99.56650655	     35.95261817	     12.81288889	      0.00000000	     -8.60936773	      1.66019444	      5.28564432
      6.93500000	     10.41675608	      2.39255159	   -181.31630754	      0.30503807	      0.57790845	     -1.22760008	     69.39730613	    -26.18690324	    -14.12235503	   -100.50288932	     37.62359631	      9.71455968	      0.00000000	     72.77708713	    -33.86006753	     -9.11083570	   -100.51927407	     36.39388608	     13.01576554	      0.00000000	     -8.74751604	      1.71264949	      5.35730927
      6.94000000	     10.38814772	      2.40774045	   -181.29931709	      0.30552786	      0.57377682	     -1.22749128	     69.92783399	    -26.35443105	    -13.90966771	   -101.29083107	     37.89115503	      9.77846826	      0.00000000	     73.39201840	    -33.95387216	     -8.76498446	   -101.30910065	     36.66681275	     13.08953750	      0.00000000	     -8.91422903	      1.73351305	      5.39438315
      6.94500000	     10.36962110	      2.43096670	   -181.29580492	      0.30597970	      0.56971597	     -1.22739418	     70.45743179	    -26.50184143	    -13.69101544	   -102.05811691	     38.16450696	      9.89632340	      0.00000000	     74.02002335	    -34.07274955	     -8.42015506	   -102.07835906	     36.92485542	     13.17081028	      0.00000000	     -9.05795823	      1.77650128	      5.40916700
      6.95000000	     10.35837606	      2.46049260	   -181.30304789	      0.30646551	      0.56567469	     -1.22731118	     70.99570310	    -26.63706554	    -13.48268387	   -102.81582818	     38.42868969	     10.01143076	      0.00000000	     74.65715138	    -34.19541021	     -8.06783239	   -102.83916703	     37.15892011	     13.21451434	      0.00000000	     -9.20837693	      1.80748698	      5.47227924
      6.95500000	     10.34362470	      2.47866503	   -181.29573776	      0.30694775	      0.56166849	     -1.22729403	     71.52683901	    -26.77823890	    -13.28063245	   -103.57121796	     38.66385445	     10.09609493	      0.00000000	     75.27579193	    -34.29341634	     -7.71899713	   -103.57517157	     37.40373309	     13.26337207	      0.00000000	     -9.35028927	      1.83811567	      5.48464178
      6.96000000	     10.32690989	      2.48736099	   -181.25886659	      0.30740193	      0.55764536	     -1.22722453	     72.05618585	    -26.94283518	    -13.05562995	   -104.32092276	     38.90901192	     10.19199852	      0.00000000	     75.89185953	    -34.36758431	     -7.38291124	   -104.30644297	     37.63214297	     13.34456454	      0.00000000	     -9.50836181	      1.82980632	      5.52081969
      6.96500000	     10.31681220	      2.47169727	   -181.21193650	      0.30784848	      0.55364211	     -1.22707379	     72.59965199	    -27.13148213	    -12.81393350	   -105.05586560	     39.12457606	     10.23687736	      0.00000000	     76.48712749	    -34.40908533	     -7.08515324	   -105.02832298	     37.89139296	     13.42231888	      0.00000000	     -9.63890452	      1.86549072	      5.44114874
      6.97000000	     10.27276938	      2.48087629	   -181.19590319	      0.30823580	      0.54970561	     -1.22702291	     73.09583332	    -27.27764895	    -12.60347754	   -105.78821684	     39.36864807	     10.25807676	      0.00000000	     77.05112097	    -34.50821464	     -6.76944454	   -105.74458707	     38.14724394	     13.47305976	      0.00000000	     -9.81814509	      1.86579486	      5.47538135
      6.97500000	     10.27063609	      2.49861271	   -181.19361012	      0.30867369	      0.54575985	     -1.22692171	     73.64513778	    -27.39780678	    -12.37638095	   -106.50693940	     39.59267099	     10.31114978	      0.00000000	     77.68245563	    -34.60474974	     -6.42869809	   -106.47766835	     38.33688477	     13.53262841	      0.00000000	     -9.95316602	      1.85918780	      5.59740020
      6.98000000	     10.28675281	      2.49191065	   -181.18704501	      0.30913900	      0.54187536	     -1.22688399	     74.22842171	    -27.52737141	    -12.13271806	   -107.22199861	     39.75935459	     10.36150264	      0.00000000	     78.31195306	    -34.69674843	     -6.12603079	   -107.16764809	     38.49576936	     13.60740898	      0.00000000	    -10.05709984	      1.88695077	      5.58754884
      6.98500000	     10.30363413	      2.47895950	   -181.15303704	      0.30959932	      0.53802492	     -1.22682169	     74.79893698	    -27.68311904	    -11.89828744	   -107.92169874	     39.93208942	     10.38657983	      0.00000000	     78.93200885	    -34.75636339	     -5.83505024	   -107.85454287	     38.66296641	     13.70792345	      0.00000000	    -10.16420902	      1.88149441	      5.56876172
      6.99000000	     10.27336802	      2.45447646	   -181.08748335	      0.30997784	      0.53424494	     -1.22676240	     75.30193016	    -27.87064680	    -11.65386470	   -108.61417512	     40.12317800	     10.47313461	      0.00000000	     79.48631329	    -34.78799286	     -5.56360514	   -108.48485982	     38.88718623	     13.78344641	      0.00000000	    -10.32490388	      1.83557278	      5.58141862
      6.99500000	     10.22884003	      2.43657960	   -181.06094536	      0.31037271	      0.53050702	     -1.22677077	     75.79398033	    -28.01215309	    -11.41462985	   -109.29763908	     40.34034236	     10.48234142	      0.00000000	     80.02003485	    -34.87188767	     -5.29746305	   -109.14809040	     39.08951730	     13.86484854	      0.00000000	    -10.50559530	      1.78153144	      5.64592498
      7.00000000	     10.22641971	      2.41202572	   -181.04150117	      0.31081963	      0.52676007	     -1.22676451	     76.35501325	    -28.15116048	    -11.15249985	   -109.97585626	     40.48415225	     10.56253654	      0.00000000	     80.59609935	    -34.94917994	     -5.02833780	   -109.79263786	     39.25311795	     13.98724516	      0.00000000	    -10.61653376	      1.78129288	      5.62089446
      7.00500000	     10.23107568	      2.42855934	   -181.02408758	      0.31117615	      0.52302367	     -1.22669018	     76.88583286	    -28.28393849	    -10.90303178	   -110.65992641	     40.64472562	     10.76517296	      0.00000000	     81.20797040	    -35.03575806	     -4.70632360	   -110.45468761	     39.41164377	     14.09762846	      0.00000000	    -10.73041427	      1.77610296	      5.70835068
      7.01000000	     10.20140839	      2.42754746	   -181.02143865	      0.31150521	      0.51939483	     -1.22654338	     77.38368982	    -28.41718895	    -10.66462883	   -111.30970426	     40.83471043	     10.83489301	      0.00000000	     81.74808070	    -35.13158521	     -4.43210826	   -111.10459302	     39.58530723	     14.14680477	      0.00000000	    -10.88352639	      1.77896353	      5.78091141
      7.01500000	     10.16966508	      2.39648235	   -181.01665875	      0.31189107	      0.51578702	     -1.22654715	     77.90020816	    -28.54442975	    -10.43573413	   -111.95395955	     40.99360661	     10.75115098	      0.00000000	     82.26786315	    -35.23466175	     -4.19185472	   -111.72649164	     39.75545177	     14.26595255	      0.00000000	    -11.03241257	      1.75950846	      5.71281107
      7.02000000	     10.15799579	      2.38269178	   -181.01987071	      0.31226682	      0.51215416	     -1.22655223	     78.42066744	    -28.63057635	    -10.12609850	   -112.60343160	     41.16720050	     10.93128848	      0.00000000	     82.82362314	    -35.33463804	     -3.91811569	   -112.34683057	     39.93531871	     14.33379838	      0.00000000	    -11.17479826	      1.73557228	      5.79916333
      7.02500000	     10.11646351	      2.36538452	   -180.98006356	      0.31256972	      0.50863952	     -1.22646329	     78.89482206	    -28.78377514	     -9.87262479	   -113.23499520	     41.31607613	     11.03681929	      0.00000000	     83.33869523	    -35.39724701	     -3.66293472	   -112.95650881	     40.07416149	     14.45999327	      0.00000000	    -11.31810433	      1.77308539	      5.72867257
